<?xml version="1.0" encoding="utf-8"?>
<!-- Generator: Adobe Illustrator 25.2.3, SVG Export Plug-In . SVG Version: 6.00 Build 0)  -->
<svg version="1.1" id="Calque_1" xmlns="http://www.w3.org/2000/svg" xmlns:xlink="http://www.w3.org/1999/xlink" x="0px" y="0px"
	 viewBox="0 0 1920 1080" style="enable-background:new 0 0 1920 1080;" xml:space="preserve">
<style type="text/css">
	.st0{fill:#1A4A51;}
	.st1{fill:#FBFBFE;}
</style>
<rect x="0" class="st0" width="533" height="58"/>
<g>
	<path class="st1" d="M39,5.3c0-1,0.2-1.6,0.4-2.2c0.2-0.6,0.6-1.1,1-1.6c0.5-0.5,1-0.8,1.6-1c0.6-0.2,1.2-0.4,2.2-0.4
		C45.2,0,45.6,0,48,0c2.4,0,2.8,0,3.7,0.1c1,0,1.6,0.2,2.2,0.4c0.6,0.2,1.1,0.6,1.6,1c0.5,0.5,0.8,1,1,1.6c0.2,0.6,0.4,1.2,0.4,2.2
		C57,6.3,57,6.6,57,9s0,2.8-0.1,3.7c0,1-0.2,1.6-0.4,2.2c-0.2,0.6-0.6,1.1-1,1.6c-0.5,0.5-1,0.8-1.6,1c-0.6,0.2-1.2,0.4-2.2,0.4
		c-1,0-1.3,0.1-3.7,0.1s-2.8,0-3.7-0.1c-1,0-1.6-0.2-2.2-0.4c-1.2-0.5-2.2-1.4-2.6-2.6c-0.2-0.6-0.4-1.2-0.4-2.2
		c0-1-0.1-1.3-0.1-3.7S39,6.3,39,5.3z M40.7,12.6c0,0.9,0.2,1.4,0.3,1.7c0.3,0.8,0.9,1.4,1.7,1.7c0.3,0.1,0.8,0.3,1.7,0.3
		c1,0,1.2,0.1,3.6,0.1c2.4,0,2.7,0,3.6-0.1c0.9,0,1.4-0.2,1.7-0.3c0.4-0.1,0.7-0.4,1-0.7c0.3-0.3,0.5-0.6,0.7-1
		c0.1-0.3,0.3-0.8,0.3-1.7c0-0.9,0.1-1.2,0.1-3.6c0-2.4,0-2.7-0.1-3.6c0-0.9-0.2-1.4-0.3-1.7c-0.1-0.4-0.4-0.7-0.7-1
		c-0.3-0.3-0.6-0.5-1-0.7c-0.3-0.1-0.8-0.3-1.7-0.3c-1,0-1.2-0.1-3.6-0.1c-2.4,0-2.7,0-3.6,0.1c-0.9,0-1.4,0.2-1.7,0.3
		c-0.4,0.1-0.7,0.4-1,0.7c-0.3,0.3-0.5,0.6-0.7,1c-0.1,0.3-0.3,0.8-0.3,1.7c0,0.9-0.1,1.2-0.1,3.6C40.6,11.4,40.6,11.7,40.7,12.6z"
		/>
	<path class="st1" d="M48,4.4c2.6,0,4.6,2.1,4.6,4.6c0,2.6-2.1,4.6-4.6,4.6c-2.6,0-4.6-2.1-4.6-4.6C43.4,6.5,45.4,4.4,48,4.4z
		 M48,12c1.7,0,3-1.3,3-3c0-1.7-1.3-3-3-3c-1.7,0-3,1.3-3,3C45,10.7,46.3,12,48,12z"/>
	<path class="st1" d="M42.1,4.2c0,0.6,0.5,1.1,1.1,1.1c0.6,0,1.1-0.5,1.1-1.1c0-0.6-0.5-1.1-1.1-1.1C42.6,3.1,42.1,3.6,42.1,4.2z"/>
</g>
<path class="st1" d="M18,9L9.8,0v5.4h-1C6.5,5.4,4.3,6.3,2.6,8C0.9,9.6,0,11.9,0,14.2V18l1.6-1.7c2.1-2.3,5.1-3.6,8.2-3.7V18L18,9z
	 M1.1,15.3v-1.1c0-2.1,0.8-4,2.3-5.5c1.5-1.5,3.4-2.3,5.5-2.3h2V2.7L16.6,9l-5.7,6.3v-3.7H9.9C6.6,11.5,3.4,12.9,1.1,15.3z"/>
<g>
	<g>
		<path class="st0" d="M21.9,12.3v-10c0-1,0.8-1.8,1.8-1.8h7.1"/>
		<path class="st1" d="M22.4,12.3h-1.1v-10C21.3,1,22.4,0,23.7,0h7.1v1.1h-7.1c-0.7,0-1.2,0.5-1.2,1.2V12.3z"/>
	</g>
	<g>
		<path class="st0" d="M35.7,4.6v11.1c0,1-0.8,1.8-1.7,1.8h-8.1c-1,0-1.7-0.8-1.7-1.8V4.6c0-1,0.8-1.8,1.7-1.8H34
			C35,2.8,35.7,3.6,35.7,4.6z"/>
		<path class="st1" d="M34,18h-8.1c-1.3,0-2.3-1-2.3-2.3V4.6c0-1.3,1-2.3,2.3-2.3H34c1.3,0,2.3,1,2.3,2.3v11.1
			C36.3,17,35.3,18,34,18z M25.9,3.4c-0.7,0-1.2,0.5-1.2,1.2v11.1c0,0.7,0.5,1.2,1.2,1.2H34c0.7,0,1.2-0.5,1.2-1.2V4.6
			c0-0.7-0.5-1.2-1.2-1.2H25.9z"/>
	</g>
</g>
</svg>
