<?xml version="1.0" encoding="utf-8"?>
<!-- Generator: Adobe Illustrator 25.2.3, SVG Export Plug-In . SVG Version: 6.00 Build 0)  -->
<svg version="1.1" id="Calque_1" xmlns="http://www.w3.org/2000/svg" xmlns:xlink="http://www.w3.org/1999/xlink" x="0px" y="0px"
	 viewBox="0 0 182 112" style="enable-background:new 0 0 182 112;" xml:space="preserve">
<style type="text/css">
	.st0{fill:#FBFBFE;}
	.st1{fill:#1A4A51;}
	.st2{fill:none;stroke:#1A4A51;stroke-width:3;stroke-linecap:round;stroke-miterlimit:10;}
	.st3{fill:none;}
	.st4{fill:none;stroke:#FBFBFE;stroke-width:3;stroke-linecap:round;stroke-miterlimit:10;}
	.st5{fill:none;stroke:#FBFBFE;stroke-linecap:round;stroke-linejoin:round;stroke-miterlimit:10;}
</style>
<g>
	<g>
		<path class="st0" d="M41.4,11.1c0-3.9-3.8-8.6-5.3-10.3c-0.3-0.4-0.9-0.4-1.3,0c-1.5,1.8-5.2,6.5-5.2,10.3"/>
		<path class="st1" d="M41.9,11.1h-1c0-3.8-4-8.6-5.2-10C35.7,1,35.6,1,35.5,1c-0.1,0-0.3,0-0.4,0.2c-3.3,3.9-5.1,7.4-5.1,9.9h-1
			c0-3.5,2.9-7.7,5.4-10.6C34.8,0.1,35.2,0,35.6,0c0.4,0,0.7,0.2,0.9,0.5C38.1,2.3,41.9,7.1,41.9,11.1z"/>
	</g>
	<g>
		<path class="st0" d="M41.4,55H29.6V11c0-0.2,0.1-0.3,0.3-0.3h11.3c0.2,0,0.3,0.1,0.3,0.3C41.4,11,41.4,55,41.4,55z"/>
		<path class="st1" d="M41.9,55.5H29.1V11c0-0.5,0.3-0.8,0.8-0.8h11.3c0.5,0,0.8,0.3,0.8,0.8V55.5z M30.1,54.5h10.9V11.2H30.1V54.5z
			"/>
	</g>
	<g>
		<path class="st0" d="M48.2,60.2v2.3c0,0.3,0.2,0.5,0.5,0.5H49c0.3,0,0.5-0.2,0.5-0.5v-9.4c0-0.6-0.2-1.3-0.6-1.8l-7.4-9.4L41.3,55
			L48.2,60.2z"/>
		<path class="st1" d="M49,63.5h-0.3c-0.6,0-1-0.4-1-1v-2.1l-6.9-5.2L41,40.5L49.3,51c0.4,0.6,0.7,1.3,0.7,2.1v9.4
			C50,63.1,49.6,63.5,49,63.5z M41.8,54.8l6.8,5.2v2.5H49v-9.4c0-0.5-0.2-1.1-0.5-1.5L42,43.3L41.8,54.8z"/>
	</g>
	<g>
		<path class="st0" d="M29.6,55l-6.7,5.2v2.3c0,0.3-0.2,0.5-0.5,0.5H22c-0.3,0-0.5-0.2-0.5-0.5v-9.4c0-0.6,0.2-1.3,0.6-1.8l7.5-9.4
			V55z"/>
		<path class="st1" d="M22.3,63.5H22c-0.6,0-1-0.4-1-1v-9.4c0-0.8,0.3-1.6,0.7-2.1l8.3-10.5v14.8l-6.7,5.2v2.1
			C23.3,63.1,22.9,63.5,22.3,63.5z M29.1,43.3l-6.6,8.3c-0.3,0.4-0.5,1-0.5,1.5v9.4h0.3V60l6.7-5.2V43.3z"/>
	</g>
	<path class="st1" d="M39.1,22.5c-0.3,0-0.5-0.2-0.5-0.5v-2.8c0-0.3,0.2-0.5,0.5-0.5c0.3,0,0.5,0.2,0.5,0.5V22
		C39.6,22.3,39.4,22.5,39.1,22.5z"/>
	<path class="st1" d="M39.1,46.5c-0.3,0-0.5-0.2-0.5-0.5V25.5c0-0.3,0.2-0.5,0.5-0.5c0.3,0,0.5,0.2,0.5,0.5V46
		C39.6,46.3,39.4,46.5,39.1,46.5z"/>
	<g>
		<path class="st0" d="M35.7,63.5h-0.5c-0.3,0-0.6-0.2-0.6-0.6V41.8c0-0.3,0.2-0.6,0.6-0.6h0.5c0.3,0,0.6,0.2,0.6,0.6v21.1
			C36.3,63.3,36,63.5,35.7,63.5z"/>
		<path class="st1" d="M35.7,64h-0.5c-0.6,0-1.1-0.5-1.1-1.1V41.8c0-0.6,0.5-1.1,1.1-1.1h0.5c0.6,0,1.1,0.5,1.1,1.1v21.1
			C36.8,63.5,36.3,64,35.7,64z M35.2,41.7c0,0-0.1,0-0.1,0.1v21.1c0,0,0,0.1,0.1,0.1h0.5c0.1,0,0.1-0.1,0.1-0.1V41.8
			c0,0,0-0.1-0.1-0.1H35.2z"/>
	</g>
</g>
<g>
	<g>
		<path class="st1" d="M2.6,43.5c-0.5,0-0.9-0.1-1.2-0.4c-0.9-0.7-1-1.9-0.3-2.9l14-18.2L1.1,3.8C0.4,2.9,0.6,1.6,1.4,0.9
			c0.4-0.3,0.8-0.4,1.2-0.4c0.6,0,1.2,0.3,1.6,0.8l15,19.4c0.6,0.7,0.6,1.7,0,2.6l-15,19.4C3.8,43.2,3.2,43.5,2.6,43.5z"/>
		<path class="st0" d="M2.6,1C3,1,3.5,1.2,3.8,1.6l15,19.4c0.4,0.5,0.4,1.3,0,1.9l-15,19.4c-0.3,0.4-0.7,0.6-1.2,0.6
			c-0.3,0-0.7-0.1-0.9-0.3c-0.6-0.5-0.8-1.5-0.2-2.1l14.3-18.5L1.4,3.5C0.9,2.8,1,1.8,1.6,1.3C1.9,1.1,2.3,1,2.6,1 M2.6,0L2.6,0
			C2,0,1.5,0.2,1.1,0.5C0,1.4-0.2,3.1,0.6,4.1L14.4,22L0.6,39.9C-0.3,41-0.1,42.7,1,43.5C1.4,43.8,2,44,2.5,44c0.8,0,1.5-0.3,2-1
			l15-19.4c0.7-0.9,0.7-2.3,0-3.2L4.5,0.9C4.1,0.3,3.4,0,2.6,0L2.6,0z"/>
	</g>
</g>
<g>
	<g>
		<circle class="st2" cx="74.5" cy="23.5" r="10"/>
		<line class="st2" x1="81.6" y1="30.6" x2="89.5" y2="38.5"/>
	</g>
	<rect x="51" class="st3" width="52" height="52"/>
</g>
<g>
	<rect x="104" class="st1" width="37" height="37"/>
	<g>
		<circle class="st4" cx="120.7" cy="16.7" r="7.1"/>
		<line class="st4" x1="125.8" y1="21.8" x2="131.4" y2="27.4"/>
	</g>
</g>
<g>
	<polygon class="st1" points="152,7 142,7 142,1.2 142,0 152,0 	"/>
	<polyline class="st5" points="150.5,1.8 147,5.2 143.5,1.8 	"/>
</g>
</svg>
