<?xml version="1.0" encoding="utf-8"?>
<!-- Generator: Adobe Illustrator 25.2.3, SVG Export Plug-In . SVG Version: 6.00 Build 0)  -->
<svg version="1.1" id="Calque_1" xmlns="http://www.w3.org/2000/svg" xmlns:xlink="http://www.w3.org/1999/xlink" x="0px" y="0px"
	 viewBox="0 0 182 112" style="enable-background:new 0 0 182 112;" xml:space="preserve">
<style type="text/css">
	.st0{fill:#5A7EA9;}
	.st1{fill:#FBFBFE;}
	.st2{fill:#1A4A51;}
	.st3{fill:none;stroke:#1A4A51;stroke-width:3;stroke-linecap:round;stroke-miterlimit:10;}
	.st4{fill:none;}
	.st5{fill:none;stroke:#FBFBFE;stroke-width:3;stroke-linecap:round;stroke-miterlimit:10;}
	.st6{fill:none;stroke:#FBFBFE;stroke-linecap:round;stroke-linejoin:round;stroke-miterlimit:10;}
	.st7{fill:#F7AB6B;}
	.st8{fill:#FCE9B6;}
	.st9{fill:#FEC680;}
	.st10{fill:#F4895F;}
	.st11{fill:#95D776;}
	.st12{fill:none;stroke:#67C55B;stroke-miterlimit:10;}
	.st13{fill:#64C3CE;}
	.st14{fill:#67C55B;}
	.st15{fill:#67C55B;stroke:#64C3CE;stroke-miterlimit:10;}
	.st16{fill:none;stroke:#64C3CE;stroke-width:0.5;stroke-miterlimit:10;}
</style>
<circle class="st0" cx="-29.1" cy="12.5" r="16"/>
<g>
	<g>
		<path class="st1" d="M41.4,11.1c0-3.9-3.8-8.6-5.3-10.3c-0.3-0.4-0.9-0.4-1.3,0c-1.5,1.8-5.2,6.5-5.2,10.3"/>
		<path class="st2" d="M41.9,11.1h-1c0-3.8-4-8.6-5.2-10C35.7,1,35.6,1,35.5,1s-0.3,0-0.4,0.2C31.8,5.1,30,8.6,30,11.1h-1
			c0-3.5,2.9-7.7,5.4-10.6C34.8,0.1,35.2,0,35.6,0c0.4,0,0.7,0.2,0.9,0.5C38.1,2.3,41.9,7.1,41.9,11.1z"/>
	</g>
	<g>
		<path class="st1" d="M41.4,55H29.6V11c0-0.2,0.1-0.3,0.3-0.3h11.3c0.2,0,0.3,0.1,0.3,0.3C41.4,11,41.4,55,41.4,55z"/>
		<path class="st2" d="M41.9,55.5H29.1V11c0-0.5,0.3-0.8,0.8-0.8h11.3c0.5,0,0.8,0.3,0.8,0.8L41.9,55.5L41.9,55.5z M30.1,54.5H41
			V11.2H30.1V54.5z"/>
	</g>
	<g>
		<path class="st1" d="M48.2,60.2v2.3c0,0.3,0.2,0.5,0.5,0.5H49c0.3,0,0.5-0.2,0.5-0.5v-9.4c0-0.6-0.2-1.3-0.6-1.8l-7.4-9.4L41.3,55
			L48.2,60.2z"/>
		<path class="st2" d="M49,63.5h-0.3c-0.6,0-1-0.4-1-1v-2.1l-6.9-5.2L41,40.5L49.3,51c0.4,0.6,0.7,1.3,0.7,2.1v9.4
			C50,63.1,49.6,63.5,49,63.5z M41.8,54.8l6.8,5.2v2.5H49v-9.4c0-0.5-0.2-1.1-0.5-1.5L42,43.3L41.8,54.8z"/>
	</g>
	<g>
		<path class="st1" d="M29.6,55l-6.7,5.2v2.3c0,0.3-0.2,0.5-0.5,0.5H22c-0.3,0-0.5-0.2-0.5-0.5v-9.4c0-0.6,0.2-1.3,0.6-1.8l7.5-9.4
			V55z"/>
		<path class="st2" d="M22.3,63.5H22c-0.6,0-1-0.4-1-1v-9.4c0-0.8,0.3-1.6,0.7-2.1L30,40.5v14.8l-6.7,5.2v2.1
			C23.3,63.1,22.9,63.5,22.3,63.5z M29.1,43.3l-6.6,8.3c-0.3,0.4-0.5,1-0.5,1.5v9.4h0.3V60l6.7-5.2V43.3H29.1z"/>
	</g>
	<path class="st2" d="M39.1,22.5c-0.3,0-0.5-0.2-0.5-0.5v-2.8c0-0.3,0.2-0.5,0.5-0.5s0.5,0.2,0.5,0.5V22
		C39.6,22.3,39.4,22.5,39.1,22.5z"/>
	<path class="st2" d="M39.1,46.5c-0.3,0-0.5-0.2-0.5-0.5V25.5c0-0.3,0.2-0.5,0.5-0.5s0.5,0.2,0.5,0.5V46
		C39.6,46.3,39.4,46.5,39.1,46.5z"/>
	<g>
		<path class="st1" d="M35.7,63.5h-0.5c-0.3,0-0.6-0.2-0.6-0.6V41.8c0-0.3,0.2-0.6,0.6-0.6h0.5c0.3,0,0.6,0.2,0.6,0.6v21.1
			C36.3,63.3,36,63.5,35.7,63.5z"/>
		<path class="st2" d="M35.7,64h-0.5c-0.6,0-1.1-0.5-1.1-1.1V41.8c0-0.6,0.5-1.1,1.1-1.1h0.5c0.6,0,1.1,0.5,1.1,1.1v21.1
			C36.8,63.5,36.3,64,35.7,64z M35.2,41.7C35.2,41.7,35.1,41.7,35.2,41.7l-0.1,21.2c0,0,0,0.1,0.1,0.1h0.5c0.1,0,0.1-0.1,0.1-0.1
			V41.8c0,0,0-0.1-0.1-0.1H35.2z"/>
	</g>
</g>
<g>
	<g>
		<path class="st2" d="M2.6,43.5c-0.5,0-0.9-0.1-1.2-0.4c-0.9-0.7-1-1.9-0.3-2.9l14-18.2L1.1,3.8C0.4,2.9,0.6,1.6,1.4,0.9
			c0.4-0.3,0.8-0.4,1.2-0.4c0.6,0,1.2,0.3,1.6,0.8l15,19.4c0.6,0.7,0.6,1.7,0,2.6l-15,19.4C3.8,43.2,3.2,43.5,2.6,43.5z"/>
		<path class="st1" d="M2.6,1C3,1,3.5,1.2,3.8,1.6l15,19.4c0.4,0.5,0.4,1.3,0,1.9l-15,19.4c-0.3,0.4-0.7,0.6-1.2,0.6
			c-0.3,0-0.7-0.1-0.9-0.3c-0.6-0.5-0.8-1.5-0.2-2.1L15.8,22L1.4,3.5C0.9,2.8,1,1.8,1.6,1.3C1.9,1.1,2.3,1,2.6,1 M2.6,0L2.6,0
			C2,0,1.5,0.2,1.1,0.5C0,1.4-0.2,3.1,0.6,4.1L14.4,22L0.6,39.9C-0.3,41-0.1,42.7,1,43.5C1.4,43.8,2,44,2.5,44c0.8,0,1.5-0.3,2-1
			l15-19.4c0.7-0.9,0.7-2.3,0-3.2L4.5,0.9C4.1,0.3,3.4,0,2.6,0L2.6,0z"/>
	</g>
</g>
<g>
	<g>
		<circle class="st3" cx="74.5" cy="23.5" r="10"/>
		<line class="st3" x1="81.6" y1="30.6" x2="89.5" y2="38.5"/>
	</g>
	<rect x="51" class="st4" width="52" height="52"/>
</g>
<g>
	<rect x="104" class="st2" width="37" height="37"/>
	<g>
		<circle class="st5" cx="120.7" cy="16.7" r="7.1"/>
		<line class="st5" x1="125.8" y1="21.8" x2="131.4" y2="27.4"/>
	</g>
</g>
<g>
	<polygon class="st2" points="152,7 142,7 142,1.2 142,0 152,0 	"/>
	<polyline class="st6" points="150.5,1.8 147,5.2 143.5,1.8 	"/>
</g>
<g>
	<path class="st7" d="M32,81c0,0.8-0.1,1.7-0.2,2.5c-0.1,0.4-0.1,0.7-0.2,1.1l0,0c-0.1,0.4-0.2,0.8-0.3,1.1C29.3,92.2,23.2,97,16,97
		c-4.5,0-8.5-1.8-11.4-4.8c-1.7-1.7-3-3.8-3.8-6.2C0.3,84.5,0,82.8,0,81c0-0.2,0-0.4,0-0.6c0-1.1,0.2-2.2,0.5-3.3
		c0.9-3.6,3-6.7,5.8-8.9c0.5-0.4,1-0.8,1.6-1.1C10.3,65.8,13,65,16,65c4.8,0,9.1,2.1,12,5.4c1.5,1.7,2.6,3.7,3.3,6
		c0.1,0.5,0.3,1,0.4,1.5C31.9,78.9,32,79.9,32,81z"/>
	<path class="st8" d="M31.7,77.9c-3.5,2-15.7,7.4-31.2-0.7c0.9-3.6,3-6.7,5.8-8.9c9.6,15.6,25,8.1,25,8.1
		C31.5,76.9,31.6,77.4,31.7,77.9z"/>
	<path class="st9" d="M31.8,83.5c-0.1,0.4-0.1,0.7-0.2,1.1l0,0c-0.1,0.4-0.2,0.8-0.3,1.1c-0.7,0.4-1.5,0.8-2.3,1.1l0,0
		c-3.6,1.6-7.5,2.4-11.5,2.5l-3-0.1c-1,0-2-0.2-3-0.3c-2-0.2-3.9-0.8-5.8-1.2L5,87.5l-0.7-0.2L3,86.8L0.8,86C0.3,84.5,0,82.8,0,81
		c0-0.2,0-0.4,0-0.6l2.1,1.2l2.5,1.1l1.2,0.6l0.6,0.3L7,83.8c1.7,0.5,3.4,1.3,5.2,1.6c0.9,0.2,1.8,0.5,2.6,0.5l2.7,0.3
		c3.6,0.2,7.2-0.2,10.7-1.4C29.5,84.5,30.7,84,31.8,83.5z"/>
	<path class="st10" d="M29,86.8c0.9-0.7,1.7-1.4,2.6-2.2c-0.1,0.4-0.2,0.8-0.3,1.1C29.3,92.2,23.2,97,16,97c-4.5,0-8.5-1.8-11.4-4.8
		C10.3,93.6,19.7,94.1,29,86.8z"/>
	<path class="st10" d="M28,70.4C17.7,67,10.7,67,7.9,67.2C10.3,65.8,13,65,16,65C20.8,65,25.1,67.1,28,70.4z"/>
</g>
<g>
	<path class="st11" d="M-32.7,6.5c-0.4-1.1,1.4-2.8,1.1-3.4S-39,1.8-34.7,0s9.6-1.8,7.2-5.3S-7,4.3-9.8,6.2
		c-2.9,1.9-4.1,2.4-4.1,2.4s-2.4,1.7-4.6-2C-19.2,5.3-22.2,7.5-21,9s0,2.9,0.7,3.1s1.3,2.4-1,3.7c-2.3,1.2-1.6,5.1-2.4,4.1
		s-0.6-4-2.6-4.2c-2.1-0.2-1.9-0.4-2.4-1.9s-7.2,1.8-6.5-2.1c0.7-3.8,6.1-2.3,7-3.2c0.9-0.8,1.6-3,0.5-2.9
		C-28.9,5.7-32.4,7.6-32.7,6.5z"/>
	<path class="st12" d="M-32.7,6.5c-0.4-1.1,1.4-2.8,1.1-3.4S-39,1.8-34.7,0s9.6-1.8,7.2-5.3S-7,4.3-9.8,6.2
		c-2.9,1.9-4.1,2.4-4.1,2.4s-2.4,1.7-4.6-2C-19.2,5.3-22.2,7.5-21,9s0,2.9,0.7,3.1s1.3,2.4-1,3.7c-2.3,1.2-1.6,5.1-2.4,4.1
		s-0.6-4-2.6-4.2c-2.1-0.2-1.9-0.4-2.4-1.9s-7.2,1.8-6.5-2.1c0.7-3.8,6.1-2.3,7-3.2c0.9-0.8,1.6-3,0.5-2.9
		C-28.9,5.7-32.4,7.6-32.7,6.5z"/>
	<path class="st13" d="M-27.4-5.9c2.5,0,20.1,10.4,17.6,12.1c-2.9,1.9-4.1,2.4-4.1,2.4S-14.5,9-15.3,9c-0.9,0-2.1-0.5-3.3-2.4
		c-0.2-0.3-0.4-0.4-0.7-0.4c-1.1,0-2.8,1.6-1.8,2.8c1.2,1.5,0,2.9,0.7,3.1c0.7,0.2,1.3,2.4-1,3.7c-2,1.1-1.7,4.3-2.2,4.3
		c-0.1,0-0.1,0-0.2-0.2c-0.8-1-0.6-4-2.6-4.2c-2.1-0.2-1.9-0.4-2.4-1.9c-0.1-0.3-0.5-0.4-1-0.4c-0.9,0-2.3,0.3-3.5,0.3
		c-1.3,0-2.3-0.4-2-1.9c0.7-3.8,6.1-2.3,7-3.2c0.9-0.8,1.5-2.9,0.5-2.9l0,0c-0.8,0-3.1,1.2-4.3,1.2c-0.3,0-0.6-0.1-0.6-0.3
		c-0.4-1.1,1.4-2.8,1.1-3.4s-7.4-1.3-3.1-3.1s9.6-1.8,7.2-5.3C-27.8-5.7-27.7-5.9-27.4-5.9 M-27.4-6.9c-0.7,0-1.1,0.4-1.2,0.6
		c-0.2,0.5-0.2,1,0.2,1.5c0.3,0.5,0.5,0.9,0.4,1.1c-0.2,0.6-2.1,1.1-3.6,1.5C-32.7-1.9-34-1.5-35.2-1c-0.6,0.3-2.1,0.9-2,2.1
		c0.1,1.3,1.8,1.8,3.6,2.3c0.2,0.1,0.5,0.1,0.7,0.2C-33,3.7-33,3.8-33.1,3.9c-0.5,0.9-1.1,1.9-0.7,2.9c0.1,0.3,0.5,1,1.6,1
		c0.8,0,1.9-0.4,2.9-0.7c0.3-0.1,0.6-0.2,0.8-0.3c-0.1,0.3-0.3,0.7-0.6,1c-0.2,0.1-0.9,0.1-1.3,0.1c-2.1,0.1-5.5,0.2-6.1,3.7
		c-0.2,0.9,0,1.7,0.5,2.2c0.8,0.9,2.1,0.9,2.5,0.9c0.7,0,1.4-0.1,2.1-0.2c0.5-0.1,1.1-0.1,1.5-0.1c0.1,0,0.1,0,0.2,0v0.1
		c0.5,1.6,1,2,3.1,2.2c0.6,0.1,0.8,0.6,1.2,1.9c0.2,0.7,0.4,1.4,0.8,1.9c0.3,0.3,0.6,0.5,1,0.5c1,0,1.2-1,1.3-1.7
		c0.2-0.9,0.4-2.2,1.3-2.7c1.4-0.8,2.2-2.1,2.1-3.5c-0.1-0.7-0.4-1.3-0.8-1.7c0.1-0.6,0.2-1.9-0.7-3.1c0-0.1-0.1-0.1,0-0.3
		c0.2-0.4,0.7-0.7,1-0.8c1.4,2.3,3,2.8,4,2.8c0.9,0,1.6-0.4,1.8-0.5c0.4-0.2,1.7-0.8,4.2-2.4C-8.8,6.7-8.6,6-8.8,5.3
		C-9.6,1.9-24.9-6.9-27.4-6.9L-27.4-6.9z"/>
</g>
<g>
	<path class="st14" d="M-47,16.5l0.7,0.1c0.1,0,3,0.3,6,3c0.2,0.1,0.4,0.2,0.5,0.2s0.2-0.1,0.4-0.3c0.3-0.3,0.7-0.8,1.5-0.8
		c0.2,0,0.5,0,0.7,0.1c1.7,0.5,1.9,1.4,2,1.9c0.2,0,0.4-0.1,0.5-0.1c1.8,0,1.9,1.9,1.9,2.9c0.1,1.2,4.9,5.9,6.9,5.9h0.6l0.1,0.5
		c0,0.6,0.1,0.7-17,3.3l-0.4,0.1L-47,16.5z"/>
	<path class="st13" d="M-46.3,17.1c0,0,2.7,0.2,5.7,2.9c0.3,0.2,0.6,0.3,0.8,0.3c0.8,0,0.8-1.2,1.8-1.2c0.2,0,0.4,0,0.6,0.1
		c2.3,0.7,1.4,2,1.8,2h0.1c0.3-0.1,0.6-0.1,0.8-0.1c1.2,0,1.4,1.1,1.5,2.4c0.1,1.5,5.2,6.4,7.4,6.4c0,0,0,0,0.1,0h0.1
		c1.5,0-16.4,2.8-16.4,2.8L-46.3,17.1 M-47.6,16l0.4,1.4L-43,33l0.2,0.9l0.9-0.1c0,0,4.1-0.6,8.3-1.3c2.4-0.4,4.3-0.7,5.7-1
		c3-0.5,3.5-0.6,3.4-1.6c0-0.3-0.3-0.9-1.1-0.9h-0.1c-1.7,0-6.2-4.3-6.4-5.5c-0.1-1-0.2-3.3-2.4-3.3h-0.1c-0.2-0.7-0.8-1.4-2.3-1.8
		c-0.3-0.1-0.6-0.1-0.9-0.1c-1.1,0-1.6,0.7-1.9,1c0,0,0,0.1-0.1,0.1c0,0-0.1,0-0.1-0.1c-3.2-2.8-6.1-3.1-6.3-3.1L-47.6,16L-47.6,16z
		"/>
</g>
<g>
	<path class="st14" d="M-50,7.9l0.3-0.3C-39.8-2.6-39.2-2.6-38.9-2.6h0.3l0.2,0.3c0.4,0.7-0.2,3.2-1.5,4.9c-0.7,0.8-0.3,1.9,0,2.8
		c0.2,0.7,0.4,1.4-0.1,1.8c-0.2,0.1-0.4,0.3-0.8,0.4c-0.8,0.4-1.9,1-2.5,1.9c-1,1.6-3.8,2.4-3.9,2.4l-0.4,0.1L-50,7.9z"/>
	<path class="st13" d="M-38.9-2.1L-38.9-2.1c0.2,0.4-0.1,2.7-1.5,4.4c-1.3,1.7,0.6,4.1,0,4.5s-2.5,1-3.4,2.4s-3.6,2.2-3.6,2.2
		l-2-3.4C-49.4,8-39.5-2.1-38.9-2.1 M-38.9-3.1c-0.5,0-1,0-11.2,10.4l-0.5,0.5l0.4,0.7l2,3.4l0.4,0.7l0.7-0.2
		c0.3-0.1,3.2-0.9,4.2-2.6c0.5-0.8,1.5-1.3,2.3-1.7c0.3-0.2,0.6-0.3,0.8-0.5C-39,7-39.3,6-39.5,5.2c-0.3-1-0.5-1.8-0.1-2.4
		c1.4-1.8,2.1-4.5,1.6-5.4l-0.3-0.6L-38.9-3.1L-38.9-3.1z"/>
</g>
<path class="st11" d="M-42.2,9.8c0.3,0.7,1.5,0,1.9-0.3c0.4-0.4,0.8-1.2,0.3-1.4C-40.4,8-42.5,9.1-42.2,9.8z"/>
<path class="st15" d="M-20.5,21.3c0,0-0.2,2.4,0.4,2.3s2.4-1.8,2.7-2.6c0.3-0.8,0.7-2.2-1-1.8C-20.2,19.6-20.5,21.3-20.5,21.3z"/>
<path class="st13" d="M-18.9,16.6c0,0,1.4-2.1,1.3-3s2.2,0.6,0.9,2.2C-18,17.3-19,17.5-18.9,16.6z"/>
<path class="st16" d="M-30.2,24.2c0,0,1.7,1.6,2.1,2c0.4,0.3,0.1-0.8,0.2-1.3c0-0.5-0.6-2.2-1.1-2.4C-29.6,22.4-30.8,23.6-30.2,24.2
	z"/>
<path class="st13" d="M-42.3,15.3c0,0,1.4,0.8,1.6,1.2c0.2,0.5,1.3-0.3,1.7-1s0.5-1.5-0.3-2.2c-0.9-0.7-1.7-0.4-2.2,0.2
	C-42,14.2-42.8,15-42.3,15.3z"/>
<path class="st0" d="M-40.7,15.2c0,0,0.5-0.1,0.6-0.4s0.4,1,0,1C-40.4,15.8-40.6,16.1-40.7,15.2z"/>
<g>
	<path class="st0" d="M66,81c0,8.1-6.1,14.9-14,15.9c-0.3,0-0.5,0.1-0.8,0.1s-0.6,0-0.8,0l0,0c-0.1,0-0.2,0-0.4,0
		c-0.3,0-0.5,0-0.8,0c-0.2,0-0.4,0-0.6,0c-0.2,0-0.3,0-0.5-0.1c-0.2,0-0.4,0-0.6-0.1h-0.1c-0.2,0-0.3-0.1-0.5-0.1s-0.4-0.1-0.6-0.1
		c-0.2,0-0.4-0.1-0.6-0.2c-0.6-0.2-1.2-0.4-1.8-0.6c-0.2-0.1-0.5-0.2-0.7-0.3c-0.1-0.1-0.3-0.1-0.4-0.2c-0.1-0.1-0.3-0.2-0.5-0.2
		c-0.2-0.1-0.3-0.2-0.5-0.3c-0.2-0.1-0.4-0.2-0.5-0.3c-0.3-0.2-0.6-0.4-0.8-0.6c-0.2-0.1-0.4-0.3-0.5-0.4c-0.2-0.2-0.4-0.3-0.6-0.5
		c-0.2-0.2-0.4-0.3-0.5-0.5c-0.1-0.1-0.2-0.2-0.4-0.4c-0.1-0.1-0.2-0.2-0.2-0.3c-0.2-0.2-0.3-0.3-0.5-0.5c-0.1-0.1-0.2-0.2-0.2-0.3
		c-0.1-0.1-0.2-0.3-0.3-0.4c-0.7-1-1.4-2.1-1.8-3.3c-0.1-0.2-0.2-0.5-0.3-0.7c0-0.1-0.1-0.3-0.1-0.4l0,0c0-0.1-0.1-0.2-0.1-0.4
		c-0.1-0.2-0.1-0.4-0.2-0.7c0,0,0-0.1-0.1-0.2C34.2,83.7,34,82.3,34,81c0-0.3,0-0.7,0-1v-0.1c0-0.3,0.1-0.7,0.1-1v-0.1l0,0
		c0-0.2,0.1-0.5,0.1-0.7s0.1-0.5,0.2-0.7c0-0.2,0.1-0.5,0.2-0.7l0,0c0.1-0.2,0.2-0.5,0.2-0.7c0.1-0.2,0.1-0.3,0.2-0.5
		c0-0.1,0.1-0.3,0.2-0.4c0.2-0.4,0.3-0.8,0.5-1.2c0.1-0.2,0.2-0.4,0.3-0.6c0.2-0.4,0.5-0.8,0.8-1.2c0.1-0.2,0.3-0.4,0.4-0.6l0,0
		c0.2-0.2,0.3-0.4,0.5-0.6c0.3-0.4,0.7-0.7,1-1.1c0.4-0.4,0.7-0.7,1.1-1c0.2-0.2,0.4-0.3,0.6-0.5c0.2-0.2,0.4-0.3,0.7-0.5l0,0
		C43.7,66,46.7,65,50,65c0.3,0,0.7,0,1,0c0.2,0,0.4,0,0.6,0l0,0l0,0c0.2,0,0.3,0,0.5,0.1l0,0c0.1,0,0.3,0,0.4,0.1h0.1
		c6,1,10.9,5.3,12.6,11.1c0.1,0.2,0.1,0.4,0.2,0.6c0,0.2,0.1,0.3,0.1,0.5l0,0c0,0.2,0.1,0.3,0.1,0.5C65.9,78.9,66,79.9,66,81z"/>
	<path class="st11" d="M65.5,76.8C65.2,77,65.1,77,65.1,77s-0.5,0.4-1.4,0.4c-0.2,0-0.3,0-0.5-0.1c-0.1,0-0.2-0.1-0.4-0.1
		c-0.1,0-0.1-0.1-0.2-0.1c-0.1-0.1-0.3-0.1-0.4-0.2c-0.2-0.1-0.4-0.3-0.6-0.5c-0.2-0.2-0.4-0.5-0.7-0.8c-0.1-0.2-0.3-0.4-0.4-0.7
		c-0.2-0.3-0.4-0.4-0.7-0.4c-0.2,0-0.3,0-0.5,0.1c-0.1,0-0.2,0.1-0.4,0.2c-0.1,0.1-0.2,0.1-0.3,0.2s-0.2,0.2-0.3,0.3
		c0,0-0.1,0.1-0.1,0.2c-0.1,0.1-0.2,0.2-0.2,0.3v0.1V76c0,0.1-0.1,0.1-0.1,0.2v0.1c0,0.2,0,0.3,0,0.5c0,0.1,0.1,0.2,0.1,0.3
		c0,0.1,0.1,0.1,0.1,0.2c1.2,1.5,0,2.8,0.7,3.1c0.7,0.2,1.3,2.4-1,3.7c-0.2,0.1-0.5,0.3-0.7,0.5s-0.3,0.4-0.5,0.6
		c-0.3,0.6-0.5,1.2-0.6,1.8c0,0.2-0.1,0.4-0.1,0.6c-0.1,0.5-0.2,0.8-0.3,0.8s-0.1,0-0.2-0.2c-0.8-1-0.6-4-2.7-4.2s-1.9-0.4-2.4-1.9
		c-0.1-0.3-0.5-0.4-1-0.4c-0.9,0-2.3,0.3-3.5,0.3c-0.7,0-1.3-0.1-1.7-0.5L44,81.4c0-0.1-0.1-0.1-0.1-0.2s-0.1-0.3-0.1-0.4
		s0-0.2,0-0.3c0-0.1,0-0.3,0-0.4c0.7-3.8,6.1-2.3,7-3.1c0.9-0.8,1.5-2.9,0.5-2.9l0,0c-0.2,0-0.4,0-0.6,0.1c-0.2,0-0.3,0.1-0.5,0.2
		c-1,0.3-2.4,0.9-3.2,0.9c-0.3,0-0.6-0.1-0.6-0.3c-0.4-1.1,1.4-2.8,1.2-3.4c-0.3-0.6-7.4-1.3-3.1-3.1c3.3-1.4,7.2-1.7,7.7-3.3
		c-0.2,0-0.3,0-0.5-0.1l0,0l0,0c-0.4,0.8-2.1,1.2-3.9,1.8c-1.1,0.3-2.4,0.7-3.5,1.2c-0.8,0.3-1.7,0.8-1.7,1.6c0.1,1,1.6,1.4,3.2,1.8
		c0.4,0.1,1,0.3,1.3,0.4c-0.1,0.2-0.3,0.6-0.4,0.8c-0.5,0.8-1,1.7-0.7,2.5c0.1,0.2,0.3,0.7,1.1,0.7c0.7,0,1.8-0.4,2.7-0.7l0.6-0.2
		c0.2-0.1,0.3-0.1,0.5-0.2c0.3-0.1,0.4-0.1,0.5-0.1c0.2,0.2-0.2,1.5-0.9,2.1c-0.2,0.1-1,0.2-1.6,0.2c-2,0.1-5.1,0.2-5.6,3.2
		c0,0.2,0,0.3-0.1,0.5c0,0.5,0.1,0.9,0.4,1.2l0.1,0.2c0.5,0.6,1.4,0.6,2.1,0.6c0.6,0,1.3-0.1,2-0.2c0.6-0.1,1.1-0.1,1.5-0.1
		s0.5,0.1,0.6,0.1l0.1,0.4c0.4,1.3,0.7,1.6,2.7,1.8c0.9,0.1,1.2,0.9,1.6,2.3c0.2,0.7,0.3,1.3,0.7,1.7c0.1,0.1,0.3,0.3,0.6,0.3
		c0.6,0,0.7-0.6,0.8-1.2c0-0.2,0.1-0.4,0.1-0.6c0.1-0.4,0.2-1.1,0.6-1.6c0.1-0.2,0.3-0.4,0.4-0.5c0.2-0.2,0.3-0.3,0.5-0.4
		c1.8-1,1.9-2.4,1.8-3c0-0.7-0.4-1.3-0.8-1.5c0-0.1,0-0.2,0-0.3c0.1-0.6,0.2-1.6-0.6-2.7l-0.1-0.1c-0.2-0.3-0.1-0.6,0-0.8
		c0.1-0.1,0.1-0.2,0.2-0.2c0,0,0.1-0.1,0.1-0.2c0.1-0.1,0.2-0.2,0.3-0.2c0.1-0.1,0.2-0.1,0.3-0.2s0.2-0.1,0.3-0.1
		c0.4-0.1,0.6-0.1,0.6,0.1c0.2,0.3,0.3,0.5,0.5,0.7c0.2,0.3,0.4,0.6,0.7,0.8c0.2,0.2,0.5,0.4,0.7,0.6c0.2,0.1,0.3,0.2,0.5,0.3
		c0.1,0,0.2,0.1,0.2,0.1c0.2,0.1,0.3,0.1,0.5,0.1c1.2,0.2,2-0.3,2.3-0.4l0.2-0.1C65.5,77.2,65.5,77,65.5,76.8z"/>
	<path class="st11" d="M65.5,76.8C65.2,77,65.1,77,65.1,77s-0.5,0.4-1.4,0.4c-0.2,0-0.3,0-0.5-0.1c-0.1,0-0.2-0.1-0.4-0.1
		c-0.1,0-0.1-0.1-0.2-0.1c-0.1-0.1-0.3-0.1-0.4-0.2c-0.2-0.1-0.4-0.3-0.6-0.5c-0.2-0.2-0.4-0.5-0.7-0.8c-0.1-0.2-0.3-0.4-0.4-0.7
		c-0.2-0.3-0.4-0.4-0.7-0.4c-0.2,0-0.3,0-0.5,0.1c-0.1,0-0.2,0.1-0.4,0.2c-0.1,0.1-0.2,0.1-0.3,0.2s-0.2,0.2-0.3,0.3
		c0,0-0.1,0.1-0.1,0.2c-0.1,0.1-0.2,0.2-0.2,0.3v0.1V76c0,0.1-0.1,0.1-0.1,0.2v0.1c0,0.2,0,0.3,0,0.5c0,0.1,0.1,0.2,0.1,0.3
		c0,0.1,0.1,0.1,0.1,0.2c1.2,1.5,0,2.8,0.7,3.1c0.7,0.2,1.3,2.4-1,3.7c-0.2,0.1-0.5,0.3-0.7,0.5s-0.3,0.4-0.5,0.6
		c-0.3,0.6-0.5,1.2-0.6,1.8c0,0.2-0.1,0.4-0.1,0.6c-0.1,0.5-0.2,0.8-0.3,0.8s-0.1,0-0.2-0.2c-0.8-1-0.6-4-2.7-4.2s-1.9-0.4-2.4-1.9
		c-0.1-0.3-0.5-0.4-1-0.4c-0.9,0-2.3,0.3-3.5,0.3c-0.7,0-1.3-0.1-1.7-0.5L44,81.4c0-0.1-0.1-0.1-0.1-0.2s-0.1-0.3-0.1-0.4
		s0-0.2,0-0.3c0-0.1,0-0.3,0-0.4c0.7-3.8,6.1-2.3,7-3.1c0.9-0.8,1.5-2.9,0.5-2.9l0,0c-0.2,0-0.4,0-0.6,0.1c-0.2,0-0.3,0.1-0.5,0.2
		c-1,0.3-2.4,0.9-3.2,0.9c-0.3,0-0.6-0.1-0.6-0.3c-0.4-1.1,1.4-2.8,1.2-3.4c-0.3-0.6-7.4-1.3-3.1-3.1c3.3-1.4,7.2-1.7,7.7-3.3l0,0
		c0.1,0,0.3,0,0.4,0.1h0.1c6,1,10.9,5.3,12.6,11.1C65.4,76.5,65.4,76.7,65.5,76.8z"/>
	<path class="st14" d="M65.3,76.3l-0.4,0.3l0,0c0,0-0.4,0.3-1.1,0.3c-0.1,0-0.3,0-0.5,0c-0.1,0-0.2,0-0.3-0.1h-0.1
		c-0.1-0.1-0.2-0.1-0.4-0.2s-0.4-0.3-0.6-0.5c-0.2-0.2-0.4-0.4-0.6-0.7c-0.1-0.2-0.3-0.4-0.4-0.6c-0.3-0.6-0.9-0.8-1.8-0.5
		c-0.1,0-0.3,0.1-0.4,0.2c-0.1,0.1-0.3,0.2-0.4,0.3c-0.1,0.1-0.2,0.2-0.3,0.3l-0.1,0.1l-0.1,0.1c-0.1,0.1-0.2,0.2-0.3,0.4
		c-0.3,0.6-0.3,1.3,0,1.8c0,0.1,0.1,0.2,0.2,0.3c0.6,0.7,0.5,1.3,0.4,1.9C58,80.1,58,80.8,58.6,81c0.1,0,0.3,0.3,0.3,0.8
		c0,0.4-0.2,1.3-1.3,1.9c-0.3,0.2-0.5,0.3-0.8,0.6c-0.2,0.2-0.4,0.4-0.5,0.7c-0.4,0.7-0.6,1.4-0.7,1.9c0,0.1-0.1,0.3-0.1,0.4
		c-0.1-0.2-0.2-0.5-0.2-0.7c-0.3-1.2-0.8-2.8-2.5-3c-1.5-0.1-1.5-0.1-1.8-1.1l-0.1-0.4c-0.2-0.8-1.2-0.8-1.5-0.8
		c-0.5,0-1,0.1-1.6,0.1c-0.6,0.1-1.3,0.2-1.9,0.2c-0.7,0-1.1-0.1-1.4-0.4c-0.1-0.1-0.2-0.3-0.2-0.6c0-0.1,0-0.2,0-0.3
		c0.4-2.1,2.3-2.3,4.7-2.4c1-0.1,1.8-0.1,2.2-0.5c0.8-0.7,1.5-2.3,1.1-3.2c-0.1-0.4-0.5-0.6-1-0.6c-0.2,0-0.4,0-0.7,0.1
		c-0.2,0-0.4,0.1-0.6,0.2l-0.6,0.2c-0.8,0.3-1.8,0.7-2.4,0.7c-0.1,0-0.2,0-0.2,0c-0.1-0.4,0.3-1.1,0.6-1.7c0.4-0.7,0.7-1.2,0.5-1.8
		c-0.2-0.4-0.7-0.6-2-0.9c-0.8-0.2-2.3-0.6-2.5-0.9c0,0,0.1-0.2,1.1-0.6c1.1-0.5,2.3-0.8,3.4-1.1c2.1-0.6,3.7-1.1,4.4-2.1l0.2-0.5
		h-0.1c-0.1,0-0.3,0-0.4-0.1l0,0c-0.6,1.6-4.5,2-7.7,3.3c-4.3,1.8,2.9,2.4,3.1,3.1c0.2,0.6-1.5,2.4-1.2,3.4c0.1,0.2,0.3,0.3,0.6,0.3
		c0.8,0,2.1-0.5,3.2-0.9c0.2-0.1,0.4-0.1,0.5-0.2C50.7,74,51,74,51.1,74l0,0c1,0,0.4,2.1-0.5,2.9s-6.4-0.7-7,3.1c0,0.2,0,0.3,0,0.4
		s0,0.2,0,0.3c0,0.2,0.1,0.3,0.1,0.4s0.1,0.1,0.1,0.2l0.1,0.1c0.4,0.4,1,0.5,1.7,0.5c1.2,0,2.6-0.3,3.5-0.3c0.5,0,0.9,0.1,1,0.4
		c0.5,1.5,0.3,1.7,2.4,1.9s1.8,3.2,2.7,4.2c0.1,0.1,0.2,0.2,0.2,0.2c0.2,0,0.2-0.3,0.3-0.8c0-0.2,0.1-0.4,0.1-0.6
		c0.1-0.6,0.3-1.2,0.6-1.8c0.1-0.2,0.3-0.4,0.5-0.6s0.4-0.4,0.7-0.5c2.2-1.2,1.6-3.4,1-3.7c-0.7-0.2,0.5-1.6-0.7-3.1
		c-0.1-0.1-0.1-0.1-0.1-0.2c-0.1-0.1-0.1-0.2-0.1-0.3c0-0.2,0-0.3,0-0.5v-0.1c0-0.1,0-0.1,0.1-0.2v-0.1v-0.1
		c0.1-0.1,0.2-0.2,0.2-0.3c0,0,0.1-0.1,0.1-0.2c0.1-0.1,0.2-0.2,0.3-0.3c0.1-0.1,0.2-0.2,0.3-0.2c0.1-0.1,0.2-0.1,0.4-0.2
		s0.3-0.1,0.5-0.1c0.3,0,0.5,0.1,0.7,0.4c0.1,0.2,0.3,0.5,0.4,0.7c0.2,0.3,0.4,0.5,0.7,0.8c0.2,0.2,0.4,0.4,0.6,0.5
		c0.1,0.1,0.3,0.2,0.4,0.2c0.1,0,0.1,0.1,0.2,0.1c0.1,0,0.3,0.1,0.4,0.1c0.2,0,0.4,0.1,0.5,0.1c0.8,0,1.4-0.4,1.4-0.4s0.1,0,0.3-0.2
		C65.4,76.7,65.4,76.5,65.3,76.3z"/>
	<path class="st13" d="M65.6,77.3L65.6,77.3c0-0.2-0.1-0.3-0.1-0.5C65.2,77,65.1,77,65.1,77s-0.5,0.4-1.4,0.4c-0.2,0-0.3,0-0.5-0.1
		c-0.1,0-0.2-0.1-0.4-0.1c-0.1,0-0.1-0.1-0.2-0.1c-0.1-0.1-0.3-0.1-0.4-0.2c-0.2-0.1-0.4-0.3-0.6-0.5c-0.2-0.2-0.4-0.5-0.7-0.8
		c-0.1-0.2-0.3-0.4-0.4-0.7c-0.2-0.3-0.4-0.4-0.7-0.4c-0.2,0-0.3,0-0.5,0.1c-0.1,0-0.2,0.1-0.4,0.2c-0.1,0.1-0.2,0.1-0.3,0.2
		s-0.2,0.2-0.3,0.3c0,0-0.1,0.1-0.1,0.2c-0.1,0.1-0.2,0.2-0.2,0.3v0.1V76c0,0.1-0.1,0.1-0.1,0.2v0.1c0,0.2,0,0.3,0,0.5
		c0,0.1,0.1,0.2,0.1,0.3c0,0.1,0.1,0.1,0.1,0.2c1.2,1.5,0,2.8,0.7,3.1c0.7,0.2,1.3,2.4-1,3.7c-0.2,0.1-0.5,0.3-0.7,0.5
		s-0.3,0.4-0.5,0.6c-0.3,0.6-0.5,1.2-0.6,1.8c0,0.2-0.1,0.4-0.1,0.6c-0.1,0.5-0.2,0.8-0.3,0.8s-0.1,0-0.2-0.2c-0.8-1-0.6-4-2.7-4.2
		s-1.9-0.4-2.4-1.9c-0.1-0.3-0.5-0.4-1-0.4c-0.9,0-2.3,0.3-3.5,0.3c-0.7,0-1.3-0.1-1.7-0.5L44,81.4c0-0.1-0.1-0.1-0.1-0.2
		s-0.1-0.3-0.1-0.4s0-0.2,0-0.3c0-0.1,0-0.3,0-0.4c0.7-3.8,6.1-2.3,7-3.1c0.9-0.8,1.5-2.9,0.5-2.9l0,0c-0.2,0-0.4,0-0.6,0.1
		c-0.2,0-0.3,0.1-0.5,0.2c-1,0.3-2.4,0.9-3.2,0.9c-0.3,0-0.6-0.1-0.6-0.3c-0.4-1.1,1.4-2.8,1.2-3.4c-0.3-0.6-7.4-1.3-3.1-3.1
		c3.3-1.4,7.2-1.7,7.7-3.3c-0.2,0-0.3,0-0.5-0.1l0,0l0,0c-0.2,0-0.4,0-0.6,0c-0.5,0.5-2.1,1-3.4,1.3c-1.1,0.3-2.4,0.7-3.6,1.2
		c-0.6,0.3-2,0.9-2,2.1c0.1,1.3,1.8,1.8,3.6,2.3c0.2,0.1,0.5,0.1,0.7,0.2c0,0.1-0.1,0.2-0.2,0.3c-0.5,0.8-1.1,1.9-0.7,2.9
		c0.1,0.3,0.5,1,1.6,1c0.8,0,1.9-0.4,2.9-0.7c0.2-0.1,0.6-0.2,0.8-0.3c-0.1,0.3-0.3,0.7-0.6,1c-0.2,0.1-0.9,0.1-1.3,0.1
		c-2,0.1-5.5,0.2-6.1,3.6c-0.2,0.9,0,1.7,0.5,2.2c0.8,0.9,2.1,0.9,2.5,0.9c0.7,0,1.4-0.1,2.1-0.2c0.5-0.1,1.1-0.1,1.4-0.1h0.2V83
		c0.5,1.6,1,2,3.1,2.2c0.6,0,0.8,0.6,1.2,1.9c0.2,0.7,0.4,1.4,0.8,1.9c0.3,0.3,0.6,0.5,1,0.5c1,0,1.2-1,1.3-1.7
		c0.2-0.9,0.4-2.2,1.3-2.7c1.4-0.8,2.2-2.1,2.1-3.5c-0.1-0.7-0.4-1.3-0.8-1.7c0.1-0.7,0.2-1.8-0.7-3.1c0,0-0.1-0.1,0-0.3
		c0.2-0.4,0.7-0.7,1-0.8c1.4,2.3,3,2.8,4,2.8c0.9,0,1.6-0.4,1.9-0.5h0.1C65.7,77.7,65.6,77.5,65.6,77.3z"/>
	<path class="st14" d="M34.8,86.1L34.8,86.1c-0.1,0-0.2,0-0.2-0.1C34.7,86,34.8,86.1,34.8,86.1z"/>
	<path class="st14" d="M50.4,97c-0.1,0-0.2,0-0.4,0c-7,0-13-4.6-15.2-10.9c0.1,0,0.3,0.1,0.4,0.2s0.3,0.1,0.4,0.2
		c0.1,0.1,0.2,0.1,0.4,0.2c0.3,0.2,0.6,0.3,0.9,0.5c0.2,0.1,0.4,0.2,0.5,0.4s0.4,0.3,0.5,0.4c0.2,0.1,0.4,0.3,0.6,0.5
		c0.3,0.2,0.6,0.3,0.8,0.3l0,0c0.1,0,0.1,0,0.2,0c0.1,0,0.1,0,0.2-0.1c0,0,0.1,0,0.1-0.1c0.1,0,0.1-0.1,0.1-0.1
		c0.1-0.1,0.1-0.1,0.2-0.2l0.1-0.1c0,0,0-0.1,0.1-0.1l0.1-0.1c0,0,0,0,0.1,0c0.1-0.1,0.3-0.2,0.5-0.3h0.1c0.1,0,0.1,0,0.2,0l0,0
		c0.2,0,0.4,0,0.6,0.1c0.2,0,0.3,0.1,0.5,0.2c0.1,0,0.1,0.1,0.2,0.1c0.2,0.1,0.4,0.2,0.5,0.4l0.1,0.1c0.1,0.1,0.1,0.1,0.2,0.2
		c0.1,0.1,0.1,0.2,0.1,0.3c0,0,0,0.1,0,0.2v0.1c0,0.1,0,0.2,0,0.3c0,0,0,0,0,0.1l0,0l0,0c0,0,0,0,0.1,0h0.1c0.3-0.1,0.5-0.1,0.8-0.1
		c0.1,0,0.1,0,0.2,0c0.1,0,0.1,0,0.2,0c0,0,0,0,0.1,0s0.2,0.1,0.2,0.1l0,0c0.1,0,0.1,0.1,0.2,0.1c0,0,0,0,0,0.1
		c0.1,0.1,0.1,0.1,0.2,0.2c0.1,0.1,0.1,0.2,0.1,0.3c0,0.1,0.1,0.2,0.1,0.4c0.1,0.3,0.1,0.7,0.1,1.2c0,0.1,0,0.1,0,0.2
		s0.1,0.2,0.1,0.3c0,0.1,0.1,0.1,0.1,0.2s0.1,0.1,0.1,0.2c0.2,0.3,0.4,0.6,0.6,0.9c0.2,0.2,0.4,0.4,0.5,0.7c0.1,0.1,0.2,0.3,0.4,0.4
		l0.1,0.1c0.1,0.1,0.3,0.3,0.4,0.4s0.3,0.3,0.4,0.4c0.4,0.4,0.9,0.8,1.3,1.1C50.2,96.9,50.3,96.9,50.4,97z"/>
	<path class="st13" d="M46.9,91.9c-0.1-1-0.2-3.3-2.4-3.3h-0.1c-0.2-0.7-0.8-1.4-2.3-1.9c-0.3-0.1-0.6-0.1-0.9-0.1
		c-1.1,0-1.6,0.7-1.9,1c0,0,0,0.1-0.1,0.1c0,0-0.1,0-0.1-0.1c-1.8-1.6-3.5-2.3-4.7-2.7c0,0.1,0,0.1,0.1,0.2c0,0.2,0.1,0.4,0.2,0.7
		c0,0.1,0.1,0.2,0.1,0.4c-0.1,0-0.2-0.1-0.2-0.1c0.1,0,0.1,0.1,0.2,0.1l0,0c0.1,0,0.2,0.1,0.4,0.2c0.1,0.1,0.3,0.1,0.4,0.2
		c0.1,0.1,0.2,0.1,0.4,0.2c0.3,0.2,0.6,0.3,0.9,0.5c0.2,0.1,0.4,0.2,0.5,0.4c0.2,0.1,0.4,0.3,0.5,0.4c0.2,0.1,0.4,0.3,0.6,0.5
		c0.3,0.2,0.6,0.3,0.8,0.3l0,0c0.1,0,0.1,0,0.2,0c0.1,0,0.1,0,0.2-0.1c0,0,0,0,0.1,0l0.1-0.1c0-0.1,0.1-0.1,0.2-0.2
		c0,0,0-0.1,0.1-0.1c0,0,0-0.1,0.1-0.1l0.1-0.1c0,0,0,0,0.1,0c0.1-0.1,0.3-0.2,0.5-0.3h0.1c0.1,0,0.1,0,0.2,0l0,0
		c0.2,0,0.4,0,0.6,0.1c0.2,0,0.3,0.1,0.5,0.2c0.1,0,0.1,0.1,0.2,0.1c0.2,0.1,0.4,0.2,0.5,0.4l0.1,0.1c0.1,0.1,0.1,0.1,0.2,0.2
		c0.1,0.1,0.1,0.2,0.1,0.3v0.1c0,0.1,0,0.1,0,0.1c0,0.1,0,0.2,0,0.3v0.1l0,0l0,0c0,0,0,0,0.1,0l0,0h0.1c0.3-0.1,0.5-0.1,0.8-0.1
		c0.1,0,0.1,0,0.2,0c0.1,0,0.1,0,0.2,0c0,0,0,0,0.1,0s0.2,0,0.2,0.1l0,0c0.1,0,0.1,0.1,0.2,0.1l0,0c0.1,0.1,0.1,0.1,0.2,0.2
		c0.1,0.1,0.1,0.2,0.1,0.3c0,0.1,0.1,0.2,0.1,0.4c0.1,0.3,0.1,0.7,0.1,1.2c0,0.1,0,0.1,0.1,0.2c0,0.1,0.1,0.2,0.1,0.3
		c0,0.1,0.1,0.1,0.1,0.2s0.1,0.1,0.1,0.2c0.2,0.3,0.4,0.6,0.6,0.9c0.2,0.2,0.4,0.4,0.6,0.7c0.1,0.1,0.2,0.3,0.4,0.4l0.1,0.1
		c0.1,0.1,0.3,0.3,0.4,0.4c0.1,0.1,0.3,0.3,0.4,0.4c0.4,0.4,0.9,0.8,1.3,1.1c0.1,0.1,0.2,0.1,0.2,0.2l0,0c0.3,0,0.5,0,0.8,0
		s0.5,0,0.8-0.1C50,95.7,47.1,92.8,46.9,91.9z"/>
	<path class="st14" d="M39.8,68.7L39.8,68.7c0,0.2-0.1,0.4-0.2,0.5c-0.1,0.2-0.2,0.3-0.3,0.5S39.1,70,39,70.2l0,0
		c-0.1,0.2-0.2,0.3-0.4,0.5c-1.4,1.7,0.6,4.1,0,4.5s-2.5,1-3.4,2.5c-0.1,0.1-0.1,0.2-0.2,0.3c-0.1,0.1-0.2,0.2-0.3,0.3
		c-0.2,0.2-0.4,0.4-0.7,0.5C34.7,74.7,36.8,71.1,39.8,68.7z"/>
	<path class="st13" d="M39.5,71.3c0.9-1.1,1.5-2.5,1.7-3.7c-0.2,0.2-0.5,0.3-0.7,0.5s-0.4,0.3-0.6,0.5l0,0v0.1
		c-0.1,0.1-0.1,0.3-0.2,0.4c-0.1,0.2-0.2,0.3-0.3,0.5s-0.2,0.3-0.3,0.5l0,0c-0.1,0.2-0.2,0.3-0.4,0.5c-1.3,1.7,0.6,4.1,0,4.5
		s-2.5,1-3.4,2.4c-0.1,0.1-0.1,0.2-0.2,0.3c-0.1,0.1-0.2,0.2-0.3,0.3c-0.2,0.2-0.4,0.4-0.7,0.5v0.1c0,0.3-0.1,0.7-0.1,1v0.1
		c0.8-0.4,1.7-1,2.1-1.8c0.5-0.8,1.5-1.3,2.3-1.7c0.3-0.2,0.6-0.3,0.8-0.5c0.8-0.6,0.5-1.6,0.3-2.4C39.2,72.7,39,71.9,39.5,71.3z"/>
	<path class="st11" d="M36.9,78.3c0.3,0.7,1.5,0,1.9-0.3c0.4-0.4,0.8-1.2,0.3-1.4S36.6,77.6,36.9,78.3z"/>
	<path class="st14" d="M58.6,89.8c0,0-0.2,2.4,0.4,2.3c0.6-0.1,2.4-1.8,2.7-2.6c0.3-0.8,0.7-2.2-1-1.8
		C58.9,88.1,58.6,89.8,58.6,89.8z"/>
	<path class="st13" d="M62.1,87.5c-0.3-0.4-0.9-0.5-1.6-0.3c-2,0.4-2.4,2.4-2.5,2.4v0.1c-0.1,1-0.1,2.2,0.3,2.7
		c0.1,0.1,0.3,0.2,0.5,0.2h0.1c0.8-0.2,2.8-2,3.1-2.9C62.3,89.1,62.6,88.1,62.1,87.5z M61.2,89.4c-0.2,0.5-1.5,1.8-2.1,2.1
		c-0.1-0.3-0.1-1,0-1.7c0-0.2,0.4-1.4,1.7-1.7c0.4-0.1,0.6,0,0.6,0C61.4,88.3,61.4,88.5,61.2,89.4z"/>
	<path class="st13" d="M60.2,85c0,0,1.4-2.1,1.3-3c-0.1-0.9,2.2,0.6,0.9,2.2C61.1,85.8,60.1,86,60.2,85z"/>
	<path class="st13" d="M51.5,93.9c0-0.2,0-0.4,0-0.5c0-0.5-0.6-2.5-1.3-2.6c-0.5-0.1-1.2,0.4-1.5,1c-0.2,0.4-0.2,0.8,0.1,1.1
		c0.1,0.1,1.8,1.7,2.2,2c0.1,0.1,0.2,0.1,0.3,0.1s0.1,0,0.2,0C51.6,94.8,51.5,94.4,51.5,93.9z M49.8,93.2c-0.4-0.4-0.8-0.7-0.8-0.7
		c-0.1-0.1-0.1-0.3,0-0.5c0.2-0.4,0.7-0.7,0.9-0.7l0,0c0.4,0.1,1,1.6,0.9,2.1c0,0.2,0,0.4,0,0.6c0,0.1,0,0.2,0,0.3
		C50.7,94,50.2,93.6,49.8,93.2z"/>
	<path class="st13" d="M36.8,83.8c0,0,1.4,0.8,1.6,1.2c0.2,0.5,1.3-0.3,1.7-1s0.5-1.5-0.3-2.2c-0.9-0.7-1.7-0.4-2.2,0.2
		S36.3,83.4,36.8,83.8z"/>
	<path class="st0" d="M38.4,83.7c0,0,0.5-0.1,0.6-0.4s0.4,1,0,1S38.5,84.6,38.4,83.7z"/>
</g>
<g>
	<path class="st1" d="M164,24.3c0-1,0.2-1.6,0.4-2.2s0.6-1.1,1-1.6c0.5-0.5,1-0.8,1.6-1s1.2-0.4,2.2-0.4s1.3-0.1,3.7-0.1
		s2.8,0,3.7,0.1c1,0,1.6,0.2,2.2,0.4c0.6,0.2,1.1,0.6,1.6,1c0.5,0.5,0.8,1,1,1.6s0.4,1.2,0.4,2.2s0.1,1.3,0.1,3.7s0,2.7-0.1,3.7
		c0,1-0.2,1.6-0.4,2.2c-0.2,0.6-0.6,1.1-1,1.6c-0.5,0.5-1,0.8-1.6,1s-1.2,0.4-2.2,0.4s-1.3,0.1-3.7,0.1s-2.8,0-3.7-0.1
		c-1,0-1.6-0.2-2.2-0.4c-1.2-0.5-2.2-1.4-2.6-2.6c-0.2-0.6-0.4-1.2-0.4-2.2s-0.1-1.3-0.1-3.7S164,25.3,164,24.3z M165.7,31.6
		c0,0.9,0.2,1.4,0.3,1.7c0.3,0.8,0.9,1.4,1.7,1.7c0.3,0.1,0.8,0.3,1.7,0.3c1,0,1.2,0.1,3.6,0.1c2.4,0,2.7,0,3.6-0.1
		c0.9,0,1.4-0.2,1.7-0.3c0.4-0.1,0.7-0.4,1-0.7s0.5-0.6,0.7-1c0.1-0.3,0.3-0.8,0.3-1.7c0-0.9,0.1-1.2,0.1-3.6s0-2.7-0.1-3.6
		c0-0.9-0.2-1.4-0.3-1.7c-0.1-0.4-0.4-0.7-0.7-1s-0.6-0.5-1-0.7c-0.3-0.1-0.8-0.3-1.7-0.3c-1,0-1.2-0.1-3.6-0.1
		c-2.4,0-2.7,0-3.6,0.1c-0.9,0-1.4,0.2-1.7,0.3c-0.4,0.1-0.7,0.4-1,0.7c-0.3,0.3-0.5,0.6-0.7,1c-0.1,0.3-0.3,0.8-0.3,1.7
		c0,0.9-0.1,1.2-0.1,3.6C165.6,30.4,165.6,30.7,165.7,31.6z"/>
	<path class="st1" d="M173,23.4c2.6,0,4.6,2.1,4.6,4.6c0,2.6-2.1,4.6-4.6,4.6c-2.6,0-4.6-2.1-4.6-4.6
		C168.4,25.4,170.4,23.4,173,23.4z M173,31c1.7,0,3-1.3,3-3s-1.3-3-3-3s-3,1.3-3,3S171.3,31,173,31z"/>
	<path class="st1" d="M167.1,23.2c0,0.6,0.5,1.1,1.1,1.1s1.1-0.5,1.1-1.1s-0.5-1.1-1.1-1.1S167.1,22.6,167.1,23.2z"/>
</g>
<path class="st1" d="M182,9l-8.2-9v5.4h-1c-2.4,0-4.6,0.9-6.3,2.6s-2.6,3.9-2.6,6.2V18l1.6-1.7c2.1-2.3,5.1-3.6,8.2-3.7V18L182,9z
	 M165.1,15.3v-1.1c0-2.1,0.8-4,2.3-5.5s3.4-2.3,5.5-2.3h2V2.7l5.7,6.3l-5.7,6.3v-3.7H174C170.6,11.5,167.4,12.9,165.1,15.3z"/>
<g>
	<path class="st1" d="M168.1,51.3H167v-10c0-1.3,1.1-2.3,2.4-2.3h7.1v1.1h-7.1c-0.7,0-1.2,0.5-1.2,1.2L168.1,51.3L168.1,51.3z"/>
	<path class="st1" d="M179.7,57h-8.1c-1.3,0-2.3-1-2.3-2.3V43.6c0-1.3,1-2.3,2.3-2.3h8.1c1.3,0,2.3,1,2.3,2.3v11.1
		C182,56,181,57,179.7,57z M171.6,42.4c-0.7,0-1.2,0.5-1.2,1.2v11.1c0,0.7,0.5,1.2,1.2,1.2h8.1c0.7,0,1.2-0.5,1.2-1.2V43.6
		c0-0.7-0.5-1.2-1.2-1.2C179.7,42.4,171.6,42.4,171.6,42.4z"/>
</g>
<path class="st1" d="M124.7,59.5l-6-6c1.2-1.4,1.9-3.2,1.9-5.2c0-4.6-3.7-8.3-8.3-8.3c-4.6,0-8.3,3.7-8.3,8.3c0,4.6,3.7,8.3,8.3,8.3
	c2,0,3.8-0.7,5.2-1.9l6,6c0.2,0.2,0.4,0.3,0.6,0.3c0.2,0,0.4-0.1,0.6-0.3C125.1,60.4,125.1,59.8,124.7,59.5z M112.3,54.9
	c-3.6,0-6.6-2.9-6.6-6.6c0-3.6,2.9-6.6,6.6-6.6c3.6,0,6.6,2.9,6.6,6.6C118.9,51.9,115.9,54.9,112.3,54.9z"/>
</svg>
